<?xml version="1.0"?>
<svg xmlns="http://www.w3.org/2000/svg" xmlns:xlink="http://www.w3.org/1999/xlink" xmlns:svgjs="http://svgjs.com/svgjs" version="1.1" width="512" height="512" x="0" y="0" viewBox="0 0 512 512" style="enable-background:new 0 0 512 512" xml:space="preserve" class=""><g><linearGradient xmlns="http://www.w3.org/2000/svg" id="SVGID_1_" gradientUnits="userSpaceOnUse" x1="256" x2="256" y1="512" y2="0"><stop stop-opacity="1" stop-color="#a4b6fe" offset="0"/><stop stop-opacity="1" stop-color="#f4f5fc" offset="0.9884169884169884"/><stop stop-opacity="1" stop-color="#dee0ec" offset="1"/></linearGradient><linearGradient xmlns="http://www.w3.org/2000/svg" id="SVGID_2_" gradientUnits="userSpaceOnUse" x1="256" x2="256" y1="407" y2="105"><stop stop-opacity="1" stop-color="#081ba0" offset="0"/><stop stop-opacity="1" stop-color="#971cf2" offset="0.4749034749034749"/></linearGradient><g xmlns="http://www.w3.org/2000/svg"><g><circle cx="256" cy="256" fill="url(#SVGID_1_)" r="256" data-original="url(#SVGID_1_)" style=""/></g><g><g><path d="m313.281 168.113 4.911 2.455v-65.568h-17.769v65.568l4.911-2.455c2.499-1.249 5.449-1.249 7.947 0zm31.565-63.113h-8.885v79.941c0 3.079-1.596 5.933-4.217 7.555-2.565 1.595-5.83 1.786-8.642.39l-13.796-6.896-13.795 6.896c-2.776 1.362-6.039 1.232-8.642-.39-2.62-1.622-4.217-4.476-4.217-7.555v-79.941h-115.5c-14.698 0-26.654 11.953-26.654 26.647v248.706c0 14.694 11.956 26.647 26.654 26.647h177.692c14.698 0 26.654-11.953 26.654-26.647v-248.706c.002-14.694-11.954-26.647-26.652-26.647zm-159.923 71.059h53.308c4.911 0 8.885 3.973 8.885 8.882s-3.974 8.882-8.885 8.882h-53.308c-4.911 0-8.885-3.973-8.885-8.882s3.974-8.882 8.885-8.882zm88.846 195.412h-35.539c-4.911 0-8.885-3.973-8.885-8.882s3.974-8.882 8.885-8.882h35.539c4.911 0 8.885 3.973 8.885 8.882s-3.974 8.882-8.885 8.882zm0-35.53h-88.846c-4.911 0-8.885-3.973-8.885-8.882 0-4.91 3.974-8.882 8.885-8.882h88.846c4.911 0 8.885 3.973 8.885 8.882s-3.974 8.882-8.885 8.882zm53.308-35.529h-142.154c-4.911 0-8.885-3.973-8.885-8.882s3.974-8.882 8.885-8.882h142.154c4.911 0 8.885 3.973 8.885 8.882s-3.974 8.882-8.885 8.882zm0-35.53h-142.154c-4.911 0-8.885-3.973-8.885-8.882 0-4.91 3.974-8.882 8.885-8.882h142.154c4.911 0 8.885 3.973 8.885 8.882 0 4.91-3.974 8.882-8.885 8.882zm0-35.529h-142.154c-4.911 0-8.885-3.973-8.885-8.882s3.974-8.882 8.885-8.882h142.154c4.911 0 8.885 3.973 8.885 8.882s-3.974 8.882-8.885 8.882z" fill="url(#SVGID_2_)" data-original="url(#SVGID_2_)" style=""/></g></g></g></g></svg>
