<?xml version="1.0"?>
<svg xmlns="http://www.w3.org/2000/svg" xmlns:xlink="http://www.w3.org/1999/xlink" xmlns:svgjs="http://svgjs.com/svgjs" version="1.1" width="512" height="512" x="0" y="0" viewBox="0 0 512 512" style="enable-background:new 0 0 512 512" xml:space="preserve" class=""><circle r="256" cx="256" cy="256" fill="#d9efff" shape="circle" transform="matrix(0.98,0,0,0.98,5.1200000000000045,5.1200000000000045)"/><g transform="matrix(0.63,0,0,0.63,94.71980522155755,94.72)"><g xmlns="http://www.w3.org/2000/svg"><path d="m426.495 228.411v-43.482h52.21l-57.333-133.286h-364.039l-57.333 133.286h52.21v206.571h234.055c18.755 40.607 59.862 68.857 107.448 68.857 65.224 0 118.286-53.063 118.286-118.286.001-53.853-36.176-99.412-85.504-113.66zm-24.877-146.768 31.524 73.286h-139.484l-31.524-73.286zm-324.531 0h139.484l-31.524 73.286h-139.484zm5.123 103.286h122.591l19.552-45.453v222.024h-142.143zm172.143 176.571v-222.025l19.552 45.453h122.591v38.893c-.925-.021-1.851-.035-2.781-.035-65.223 0-118.285 53.063-118.285 118.285 0 6.617.555 13.105 1.604 19.429zm139.361 68.857c-48.681 0-88.285-39.604-88.285-88.286 0-48.681 39.604-88.285 88.285-88.285 48.682 0 88.286 39.604 88.286 88.285 0 48.682-39.604 88.286-88.286 88.286z" fill="#0591fb" data-original="#000000" style="" class=""/><path d="m383.77 349.233-26.254-26.254-21.213 21.213 47.467 47.467 67.355-67.356-21.213-21.213z" fill="#0591fb" data-original="#000000" style="" class=""/><path d="m122.714 292.643h30v30h-30z" fill="#0591fb" data-original="#000000" style="" class=""/></g></g></svg>
