<svg id="Capa_1" enable-background="new 0 0 512 512" height="512" viewBox="0 0 512 512" width="512" xmlns="http://www.w3.org/2000/svg"><g><g><path d="m391 411.391h-270v-195c0-74.443 60.557-135 135-135s135 60.557 135 135z" fill="#f03800"/></g><path d="m391 411.391v-195c0-74.443-60.557-135-135-135v330z" fill="#cd0000"/><g><path d="m241 276.391h30v120h-30z" fill="#ff9100"/></g><path d="m256 276.391h15v120h-15z" fill="#ff641a"/><path d="m389.801 381.391-53.251 31.95 10.649-31.95h-77.398l-53.251 31.95 10.649-31.95h-166.199v90h76.199l53.253-31.952-10.651 31.952h77.398l53.253-31.952-10.651 31.952h151.199v-90z" fill="#ffe6b3"/><path d="m336.55 413.341 10.649-31.95h-77.398l-13.801 8.28v81.72h1.199l53.253-31.952-10.651 31.952h151.199v-90h-61.199z" fill="#ffca80"/><g id="Siren_2_"><g><path d="m269.801 381.391-90 90h-42.602l90-90z" fill="#704c55"/></g><g><path d="m389.801 381.391-90 90h-42.602l90-90z" fill="#5b362a"/></g><g><path d="m30 216.391h-30c0-65.669 25.005-128.101 70.43-175.782l21.709 20.684c-40.064 42.085-62.139 97.163-62.139 155.098z" fill="#ffe6b3"/></g><g><path d="m512 216.391h-30c0-57.935-22.075-113.013-62.139-155.098l21.709-20.684c45.425 47.681 70.43 110.113 70.43 175.782z" fill="#ffca80"/></g><g><path d="m90 216.391h-30c0-48.237 17.813-94.57 50.156-130.459l22.295 20.098c-27.378 30.366-42.451 69.55-42.451 110.361z" fill="#ffe6b3"/></g><g><path d="m452 216.391h-30c0-40.811-15.073-79.995-42.451-110.361l22.295-20.098c32.344 35.888 50.156 82.221 50.156 130.459z" fill="#ffca80"/></g><g><path d="m256 291.391c-24.814 0-45-20.186-45-45s20.186-45 45-45 45 20.186 45 45-20.186 45-45 45z" fill="#ff9100"/></g></g><path d="m301 246.391c0-24.814-20.186-45-45-45v90c24.814 0 45-20.186 45-45z" fill="#ff641a"/><path d="m256 395.191 13.801-13.8h-13.801z" fill="#5b362a"/></g></svg>